<svg xmlns="http://www.w3.org/2000/svg" viewBox="0 0 400 400" width="100%" height="100%">
  <defs>
    <!-- Filter to remove white background from the embedded PNG -->
    <filter id="remove-white">
      <feColorMatrix type="matrix" values="
        1 0 0 0 0
        0 1 0 0 0
        0 0 1 0 0
        -1 -1 -1 3.2 -0.2
      "/>
    </filter>

    <!-- High-quality drop shadow for 3D depth -->
    <filter id="shadow" x="-20%" y="-20%" width="140%" height="140%">
      <feDropShadow dx="3" dy="5" stdDeviation="5" flood-opacity="0.25"/>
    </filter>
    <filter id="sign-shadow" x="-20%" y="-20%" width="140%" height="140%">
      <feDropShadow dx="2" dy="6" stdDeviation="6" flood-opacity="0.2"/>
    </filter>

    <!-- Metallic steel gradient for chains and grommets -->
    <linearGradient id="metalGrad" x1="0%" y1="0%" x2="100%" y2="100%">
      <stop offset="0%" stop-color="#ffffff"/>
      <stop offset="25%" stop-color="#cbd5e1"/>
      <stop offset="50%" stop-color="#64748b"/>
      <stop offset="75%" stop-color="#94a3b8"/>
      <stop offset="100%" stop-color="#334155"/>
    </linearGradient>

    <!-- Glossy reflection gradient for the sign face -->
    <linearGradient id="glossGrad" x1="0%" y1="0%" x2="100%" y2="100%">
      <stop offset="0%" stop-color="#ffffff" stop-opacity="0.4"/>
      <stop offset="30%" stop-color="#ffffff" stop-opacity="0.15"/>
      <stop offset="30.1%" stop-color="#ffffff" stop-opacity="0"/>
      <stop offset="100%" stop-color="#ffffff" stop-opacity="0"/>
    </linearGradient>

    <!-- Wood texture shaders -->
    <linearGradient id="woodFront" x1="0%" y1="0%" x2="100%" y2="0%">
      <stop offset="0%" stop-color="#ffffff"/>
      <stop offset="85%" stop-color="#f8fafc"/>
      <stop offset="100%" stop-color="#e2e8f0"/>
    </linearGradient>
    <linearGradient id="woodSide" x1="0%" y1="0%" x2="100%" y2="0%">
      <stop offset="0%" stop-color="#cbd5e1"/>
      <stop offset="100%" stop-color="#94a3b8"/>
    </linearGradient>
    <linearGradient id="woodBottom" x1="0%" y1="0%" x2="0%" y2="100%">
      <stop offset="0%" stop-color="#94a3b8"/>
      <stop offset="100%" stop-color="#475569"/>
    </linearGradient>
  </defs>

  <!-- Wooden Yard Arm Post Structure -->
  <g filter="url(#shadow)">
    <!-- Vertical Post Front Face -->
    <rect x="290" y="30" width="22" height="340" fill="url(#woodFront)"/>
    <!-- Vertical Post Side Face (3D Depth) -->
    <rect x="312" y="30" width="8" height="340" fill="url(#woodSide)"/>
    <!-- Top Cap (Front) -->
    <polygon points="290,30 301,10 312,30" fill="url(#woodFront)"/>
    <!-- Top Cap (Side 3D) -->
    <polygon points="312,30 301,10 308,8 320,30" fill="url(#woodSide)"/>

    <!-- Crossbar Bottom Shadow Face (3D Depth) -->
    <rect x="50" y="77" width="250" height="5" fill="url(#woodBottom)"/>
    <!-- Crossbar Front Face -->
    <rect x="50" y="55" width="250" height="22" fill="url(#woodFront)"/>
    <!-- Crossbar Left Angled End Cap -->
    <polygon points="50,55 35,66 50,77" fill="url(#woodFront)"/>
    <!-- Crossbar Left End Side Face (3D) -->
    <polygon points="50,77 35,66 35,71 50,82" fill="url(#woodBottom)"/>
  </g>

  <!-- Hanging Chains (Detailed 3D Interlocking Links) -->
  <g filter="url(#shadow)">
    <!-- Left Chain Links -->
    <!-- Link 1 (vertical) -->
    <path d="M100,77 C97,77 95,81 95,87 C95,93 97,97 100,97 C103,97 105,93 105,87 C105,81 103,77 100,77 Z" fill="none" stroke="url(#metalGrad)" stroke-width="2.5"/>
    <!-- Link 2 (horizontal/interlocking) -->
    <path d="M100,91 C95,91 91,93 91,95 C91,97 95,99 100,99 C105,99 109,97 109,95 C109,93 105,91 100,91 Z" fill="none" stroke="url(#metalGrad)" stroke-width="2.5"/>
    <!-- Link 3 (vertical) -->
    <path d="M100,93 C97,93 95,97 95,103 C95,109 97,113 100,113 C103,113 105,109 105,103 C105,97 103,93 100,93 Z" fill="none" stroke="url(#metalGrad)" stroke-width="2.5"/>
    <!-- Link 4 (horizontal/interlocking) -->
    <path d="M100,107 C95,107 91,109 91,111 C91,113 95,115 100,115 C105,115 109,113 109,111 C109,109 105,107 100,107 Z" fill="none" stroke="url(#metalGrad)" stroke-width="2.5"/>

    <!-- Right Chain Links -->
    <!-- Link 1 (vertical) -->
    <path d="M210,77 C207,77 205,81 205,87 C205,93 207,97 210,97 C213,97 215,93 215,87 C215,81 213,77 210,77 Z" fill="none" stroke="url(#metalGrad)" stroke-width="2.5"/>
    <!-- Link 2 (horizontal/interlocking) -->
    <path d="M210,91 C205,91 201,93 201,95 C201,97 205,99 210,99 C215,99 219,97 219,95 C219,93 205,91 210,91 Z" fill="none" stroke="url(#metalGrad)" stroke-width="2.5"/>
    <!-- Link 3 (vertical) -->
    <path d="M210,93 C207,93 205,97 205,103 C205,109 207,113 210,113 C213,113 215,109 215,103 C215,97 207,93 210,93 Z" fill="none" stroke="url(#metalGrad)" stroke-width="2.5"/>
    <!-- Link 4 (horizontal/interlocking) -->
    <path d="M210,107 C205,107 201,109 201,111 C201,113 205,115 210,115 C215,115 219,113 219,111 C219,109 205,107 210,107 Z" fill="none" stroke="url(#metalGrad)" stroke-width="2.5"/>
  </g>

  <!-- Sign Board Group with Shadow -->
  <g filter="url(#sign-shadow)">
    <!-- Acrylic/Plate Backing Panel with 3D edge -->
    <rect x="69" y="113" width="172" height="232" fill="#cbd5e1" rx="4"/>
    <rect x="70" y="114" width="170" height="230" fill="#ffffff" rx="3"/>

    <!-- Custom Sign Graphic Overlay with white filtered out -->
    <image href="/images/products/re_sign_std.png" x="75" y="122" width="160" height="214" filter="url(#remove-white)"/>

    <!-- Metallic Grommets (Left & Right Holes) -->
    <g>
      <!-- Left Grommet Outer Ring -->
      <circle cx="100" cy="122" r="7" fill="url(#metalGrad)" stroke="#475569" stroke-width="0.5"/>
      <!-- Left Grommet Hole Inner Shadow -->
      <circle cx="100" cy="122" r="3" fill="#334155"/>
      <circle cx="100" cy="122" r="2.5" fill="#1e293b"/>

      <!-- Right Grommet Outer Ring -->
      <circle cx="210" cy="122" r="7" fill="url(#metalGrad)" stroke="#475569" stroke-width="0.5"/>
      <!-- Right Grommet Hole Inner Shadow -->
      <circle cx="210" cy="122" r="3" fill="#334155"/>
      <circle cx="210" cy="122" r="2.5" fill="#1e293b"/>
    </g>

    <!-- Glossy Reflection Sheen Diagonal Overlay -->
    <path d="M70,114 L200,114 L70,244 Z" fill="url(#glossGrad)" pointer-events="none" rx="3"/>
  </g>
</svg>
