<svg xmlns="http://www.w3.org/2000/svg" viewBox="0 0 400 400" width="100%" height="100%">
  <defs>
    <!-- Filter to remove white background from the embedded PNG -->
    <filter id="remove-white">
      <feColorMatrix type="matrix" values="
        1 0 0 0 0
        0 1 0 0 0
        0 0 1 0 0
        -1 -1 -1 3.2 -0.2
      "/>
    </filter>

    <!-- High-quality drop shadows -->
    <filter id="shadow" x="-15%" y="-15%" width="130%" height="130%">
      <feDropShadow dx="3" dy="5" stdDeviation="5" flood-opacity="0.22"/>
    </filter>
    <filter id="base-shadow" x="-10%" y="-10%" width="120%" height="120%">
      <feDropShadow dx="2" dy="3" stdDeviation="4" flood-opacity="0.3"/>
    </filter>

    <!-- Base plastic material gradient (black textured plastic) -->
    <linearGradient id="plasticBase" x1="0%" y1="0%" x2="0%" y2="100%">
      <stop offset="0%" stop-color="#475569"/>
      <stop offset="20%" stop-color="#334155"/>
      <stop offset="60%" stop-color="#1e293b"/>
      <stop offset="100%" stop-color="#0f172a"/>
    </linearGradient>

    <!-- Frame border aluminum gradient -->
    <linearGradient id="frameGrad" x1="0%" y1="0%" x2="100%" y2="0%">
      <stop offset="0%" stop-color="#f8fafc"/>
      <stop offset="25%" stop-color="#e2e8f0"/>
      <stop offset="75%" stop-color="#94a3b8"/>
      <stop offset="100%" stop-color="#475569"/>
    </linearGradient>

    <!-- Steel spring coils gradient -->
    <linearGradient id="springGrad" x1="0%" y1="0%" x2="100%" y2="100%">
      <stop offset="0%" stop-color="#ffffff"/>
      <stop offset="30%" stop-color="#cbd5e1"/>
      <stop offset="60%" stop-color="#64748b"/>
      <stop offset="100%" stop-color="#334155"/>
    </linearGradient>

    <!-- Glossy reflection overlay -->
    <linearGradient id="glossGrad" x1="0%" y1="0%" x2="100%" y2="100%">
      <stop offset="0%" stop-color="#ffffff" stop-opacity="0.25"/>
      <stop offset="35%" stop-color="#ffffff" stop-opacity="0.1"/>
      <stop offset="35.1%" stop-color="#ffffff" stop-opacity="0"/>
      <stop offset="100%" stop-color="#ffffff" stop-opacity="0"/>
    </linearGradient>
  </defs>

  <!-- 1. Heavy Black Plastic Base filled with water/sand (with Wheels & Cap) -->
  <g filter="url(#base-shadow)">
    <!-- Side wheels (Bottom Right) -->
    <rect x="264" y="348" width="12" height="22" rx="4" fill="#0f172a" stroke="#1e293b" stroke-width="1"/>
    
    <!-- Molded Plastic Water Tank Base -->
    <rect x="110" y="310" width="180" height="46" rx="8" fill="url(#plasticBase)" stroke="#1e293b" stroke-width="1"/>
    <!-- Molded Top Surface Ridge (3D perspective detail) -->
    <rect x="120" y="316" width="160" height="8" rx="2" fill="#334155" opacity="0.4"/>
    
    <!-- Water Tank Fill Cap Plug -->
    <ellipse cx="140" cy="320" rx="7" ry="2.5" fill="#0f172a" stroke="#475569" stroke-width="0.5"/>
    <ellipse cx="140" cy="320" rx="4" ry="1.5" fill="#334155"/>
  </g>

  <!-- 2. Thick Coiled Heavy-Duty Steel Springs (Deflection connectors) -->
  <g filter="url(#shadow)">
    <!-- Left Spring (coils drawn as overlapping ellipses) -->
    <rect x="156" y="278" width="12" height="34" rx="2" fill="#1e293b"/>
    <!-- Coils -->
    <path d="M 154,279 C 154,279 170,281 170,283 C 170,285 154,285 154,287 C 154,289 170,289 170,291 C 170,293 154,293 154,295 C 154,297 170,297 170,299 C 170,301 154,301 154,303 C 154,305 170,305 170,307 C 170,309 154,309 154,311" 
          fill="none" stroke="url(#springGrad)" stroke-width="3.5" stroke-linecap="round"/>

    <!-- Right Spring -->
    <rect x="232" y="278" width="12" height="34" rx="2" fill="#1e293b"/>
    <!-- Coils -->
    <path d="M 230,279 C 230,279 246,281 246,283 C 246,285 230,285 230,287 C 230,289 246,289 246,291 C 246,293 230,293 230,295 C 230,297 246,297 246,299 C 246,301 230,301 230,303 C 230,305 246,305 246,307 C 246,309 230,309 230,311" 
          fill="none" stroke="url(#springGrad)" stroke-width="3.5" stroke-linecap="round"/>

    <!-- Spring mounting collars on base -->
    <rect x="150" y="307" width="24" height="6" fill="#475569" rx="1"/>
    <rect x="226" y="307" width="24" height="6" fill="#475569" rx="1"/>
  </g>

  <!-- 3. Snap Frame Board and Sign Insert -->
  <g filter="url(#shadow)">
    <!-- Aluminum Snap Frame Outer Bevel -->
    <rect x="99.5" y="49.5" width="201" height="231" rx="5" fill="#475569"/>
    <!-- Snap Frame Border Face -->
    <rect x="100" y="50" width="200" height="230" rx="4" fill="url(#frameGrad)" stroke="#cbd5e1" stroke-width="0.75"/>
    <!-- Inner Poster Recess Shadow -->
    <rect x="110" y="60" width="180" height="210" fill="#334155"/>
    <rect x="111" y="61" width="178" height="208" fill="#ffffff"/>

    <!-- Custom Sign Graphic Overlay -->
    <image href="/images/products/wind_sign_std.png" x="113" y="63" width="174" height="204" filter="url(#remove-white)"/>

    <!-- Corner Joint Seams on the Snap Frame -->
    <line x1="100" y1="50" x2="110" y2="60" stroke="#475569" stroke-width="0.75"/>
    <line x1="300" y1="50" x2="290" y2="60" stroke="#475569" stroke-width="0.75"/>
    <line x1="100" y1="280" x2="110" y2="270" stroke="#475569" stroke-width="0.75"/>
    <line x1="300" y1="280" x2="290" y2="270" stroke="#475569" stroke-width="0.75"/>

    <!-- Glossy reflection overlay on the poster face -->
    <path d="M111,61 L210,61 L111,160 Z" fill="url(#glossGrad)" pointer-events="none"/>
  </g>
</svg>
