<svg xmlns="http://www.w3.org/2000/svg" viewBox="0 0 400 400" width="100%" height="100%">
  <defs>
    <!-- Filter to remove white background from the embedded PNG -->
    <filter id="remove-white">
      <feColorMatrix type="matrix" values="
        1 0 0 0 0
        0 1 0 0 0
        0 0 1 0 0
        -1 -1 -1 3.2 -0.2
      "/>
    </filter>

    <!-- High-quality drop shadows -->
    <filter id="shadow" x="-20%" y="-20%" width="140%" height="140%">
      <feDropShadow dx="2" dy="4" stdDeviation="4" flood-opacity="0.2"/>
    </filter>
    <filter id="stake-shadow" x="-10%" y="-10%" width="120%" height="120%">
      <feDropShadow dx="2" dy="3" stdDeviation="3" flood-opacity="0.15"/>
    </filter>

    <!-- Metallic steel gradient for H-frame stakes -->
    <linearGradient id="metalStake" x1="0%" y1="0%" x2="100%" y2="0%">
      <stop offset="0%" stop-color="#475569"/>
      <stop offset="30%" stop-color="#94a3b8"/>
      <stop offset="50%" stop-color="#f1f5f9"/>
      <stop offset="70%" stop-color="#cbd5e1"/>
      <stop offset="100%" stop-color="#334155"/>
    </linearGradient>

    <!-- Reflection overlay gradient -->
    <linearGradient id="glossGrad" x1="0%" y1="0%" x2="100%" y2="100%">
      <stop offset="0%" stop-color="#ffffff" stop-opacity="0.3"/>
      <stop offset="25%" stop-color="#ffffff" stop-opacity="0.1"/>
      <stop offset="25.1%" stop-color="#ffffff" stop-opacity="0"/>
      <stop offset="100%" stop-color="#ffffff" stop-opacity="0"/>
    </linearGradient>
  </defs>

  <!-- H-Frame Galvanized Steel Stakes -->
  <g filter="url(#stake-shadow)">
    <!-- Left Vertical Stake -->
    <rect x="118" y="140" width="6" height="230" rx="3" fill="url(#metalStake)"/>
    <!-- Right Vertical Stake -->
    <rect x="276" y="140" width="6" height="230" rx="3" fill="url(#metalStake)"/>
    
    <!-- Top Horizontal Crossbar -->
    <rect x="118" y="190" width="164" height="5.5" rx="2" fill="url(#metalStake)"/>
    <!-- Bottom Horizontal Crossbar -->
    <rect x="118" y="270" width="164" height="5.5" rx="2" fill="url(#metalStake)"/>

    <!-- Weld Joint Accents -->
    <circle cx="121" cy="193" r="5.5" fill="#475569" opacity="0.8"/>
    <circle cx="121" cy="193" r="4.5" fill="url(#metalStake)"/>
    <circle cx="279" cy="193" r="5.5" fill="#475569" opacity="0.8"/>
    <circle cx="279" cy="193" r="4.5" fill="url(#metalStake)"/>
    <circle cx="121" cy="273" r="5.5" fill="#475569" opacity="0.8"/>
    <circle cx="121" cy="273" r="4.5" fill="url(#metalStake)"/>
    <circle cx="279" cy="273" r="5.5" fill="#475569" opacity="0.8"/>
    <circle cx="279" cy="273" r="4.5" fill="url(#metalStake)"/>
  </g>

  <!-- Yard Sign Board Panel with Drop Shadow -->
  <g filter="url(#shadow)">
    <!-- Flute/Core Thickness Side Shadow (3D) -->
    <rect x="79" y="52" width="242" height="142" fill="#cbd5e1" rx="2"/>
    <!-- White Coroplast Face -->
    <rect x="80" y="50" width="240" height="140" fill="#ffffff" rx="1.5"/>

    <!-- Custom Sign Graphic Overlay -->
    <image href="/images/products/yard_sign_std.png" x="84" y="54" width="232" height="132" filter="url(#remove-white)"/>

    <!-- Glossy sheen reflection overlay -->
    <path d="M80,50 L200,50 L80,170 Z" fill="url(#glossGrad)" pointer-events="none"/>
  </g>
</svg>
